<svg width="833" height="337" viewBox="0 0 833 337" fill="none" xmlns="http://www.w3.org/2000/svg">
<path d="M155.677 51.1107C204.228 -53.1745 243.407 69.5845 267.623 117.021C302.043 184.448 387.301 244.6 184.971 265.011C-17.3584 285.422 94.9891 181.467 155.677 51.1107Z" fill="#E2E9F0"/>
<g filter="url(#filter0_b_0_66)">
<rect x="65" y="24" width="768" height="224" rx="24" fill="white" fill-opacity="0.1"/>
<path d="M175 87.3333H185C187.189 87.3333 189.356 87.7643 191.378 88.6019C193.4 89.4395 195.237 90.6672 196.785 92.2148C198.333 93.7624 199.56 95.5998 200.398 97.6219C201.236 99.644 201.667 101.811 201.667 104C201.667 106.189 201.236 108.356 200.398 110.378C199.56 112.4 198.333 114.237 196.785 115.785C195.237 117.333 193.4 118.56 191.378 119.398C189.356 120.235 187.189 120.667 185 120.667H175M155 120.667H145C142.811 120.667 140.644 120.235 138.622 119.398C136.6 118.56 134.763 117.333 133.215 115.785C130.089 112.659 128.333 108.42 128.333 104C128.333 99.5796 130.089 95.3404 133.215 92.2148C136.341 89.0892 140.58 87.3333 145 87.3333H155" stroke="#141414" stroke-width="2" stroke-linecap="round" stroke-linejoin="round"/>
<path d="M151.667 104H178.333" stroke="#141414" stroke-width="2" stroke-linecap="round" stroke-linejoin="round"/>
<path d="M247 87.3333H257C259.189 87.3333 261.356 87.7643 263.378 88.6019C265.4 89.4395 267.237 90.6672 268.785 92.2148C270.333 93.7624 271.56 95.5998 272.398 97.6219C273.236 99.644 273.667 101.811 273.667 104C273.667 106.189 273.236 108.356 272.398 110.378C271.56 112.4 270.333 114.237 268.785 115.785C267.237 117.333 265.4 118.56 263.378 119.398C261.356 120.235 259.189 120.667 257 120.667H247M227 120.667H217C214.811 120.667 212.644 120.235 210.622 119.398C208.6 118.56 206.763 117.333 205.215 115.785C202.089 112.659 200.333 108.42 200.333 104C200.333 99.5796 202.089 95.3404 205.215 92.2148C208.34 89.0892 212.58 87.3333 217 87.3333H227" stroke="#141414" stroke-width="2" stroke-linecap="round" stroke-linejoin="round"/>
<path d="M223.667 104H250.333" stroke="#141414" stroke-width="2" stroke-linecap="round" stroke-linejoin="round"/>
<path d="M319 87.3333H329C331.189 87.3333 333.356 87.7643 335.378 88.6019C337.4 89.4395 339.237 90.6672 340.785 92.2148C342.333 93.7624 343.56 95.5998 344.398 97.6219C345.236 99.644 345.667 101.811 345.667 104C345.667 106.189 345.236 108.356 344.398 110.378C343.56 112.4 342.333 114.237 340.785 115.785C339.237 117.333 337.4 118.56 335.378 119.398C333.356 120.235 331.189 120.667 329 120.667H319M299 120.667H289C286.811 120.667 284.644 120.235 282.622 119.398C280.6 118.56 278.763 117.333 277.215 115.785C274.089 112.659 272.333 108.42 272.333 104C272.333 99.5796 274.089 95.3404 277.215 92.2148C280.34 89.0892 284.58 87.3333 289 87.3333H299" stroke="#141414" stroke-width="2" stroke-linecap="round" stroke-linejoin="round"/>
<path d="M295.667 104H322.333" stroke="#141414" stroke-width="2" stroke-linecap="round" stroke-linejoin="round"/>
<path d="M369 103C368.448 103 368 103.448 368 104C368 104.552 368.448 105 369 105V103ZM409 104L399 98.2265V109.774L409 104ZM369 105H400V103H369V105Z" fill="#005AE2"/>
<path d="M479 87.3333H489C491.189 87.3333 493.356 87.7643 495.378 88.6019C497.4 89.4395 499.237 90.6672 500.785 92.2148C502.333 93.7624 503.56 95.5998 504.398 97.6219C505.236 99.644 505.667 101.811 505.667 104C505.667 106.189 505.236 108.356 504.398 110.378C503.56 112.4 502.333 114.237 500.785 115.785C499.237 117.333 497.4 118.56 495.378 119.398C493.356 120.235 491.189 120.667 489 120.667H479M459 120.667H449C446.811 120.667 444.644 120.235 442.622 119.398C440.6 118.56 438.763 117.333 437.215 115.785C434.089 112.659 432.333 108.42 432.333 104C432.333 99.5796 434.089 95.3404 437.215 92.2148C440.34 89.0892 444.58 87.3333 449 87.3333H459" stroke="#141414" stroke-width="2" stroke-linecap="round" stroke-linejoin="round"/>
<path d="M455.667 104H482.333" stroke="#141414" stroke-width="2" stroke-linecap="round" stroke-linejoin="round"/>
<path d="M288.849 176.208C287.803 176.208 286.907 175.963 286.161 175.472C285.425 174.981 284.907 174.309 284.609 173.456L285.889 172.72C286.326 174.075 287.323 174.752 288.881 174.752C289.649 174.752 290.235 174.597 290.641 174.288C291.046 173.968 291.249 173.547 291.249 173.024C291.249 172.491 291.046 172.091 290.641 171.824C290.235 171.557 289.558 171.275 288.609 170.976C288.139 170.827 287.782 170.709 287.537 170.624C287.291 170.528 286.982 170.389 286.609 170.208C286.246 170.016 285.974 169.824 285.793 169.632C285.611 169.429 285.446 169.168 285.297 168.848C285.158 168.528 285.089 168.165 285.089 167.76C285.089 166.789 285.43 166.021 286.113 165.456C286.795 164.88 287.627 164.592 288.609 164.592C289.494 164.592 290.262 164.816 290.913 165.264C291.574 165.712 292.07 166.304 292.401 167.04L291.153 167.76C290.673 166.608 289.825 166.032 288.609 166.032C288.001 166.032 287.51 166.181 287.137 166.48C286.763 166.779 286.577 167.184 286.577 167.696C286.577 168.187 286.753 168.56 287.105 168.816C287.457 169.072 288.065 169.339 288.929 169.616C289.238 169.712 289.457 169.781 289.585 169.824C289.713 169.867 289.91 169.941 290.177 170.048C290.454 170.155 290.657 170.24 290.785 170.304C290.913 170.368 291.083 170.459 291.297 170.576C291.521 170.693 291.686 170.805 291.793 170.912C291.899 171.019 292.022 171.152 292.161 171.312C292.31 171.461 292.417 171.616 292.481 171.776C292.545 171.936 292.598 172.123 292.641 172.336C292.694 172.539 292.721 172.757 292.721 172.992C292.721 173.973 292.363 174.757 291.649 175.344C290.934 175.92 290.001 176.208 288.849 176.208ZM295.502 172.64C295.641 173.355 295.966 173.909 296.478 174.304C297.001 174.699 297.641 174.896 298.398 174.896C299.454 174.896 300.222 174.507 300.702 173.728L301.886 174.4C301.108 175.605 299.934 176.208 298.366 176.208C297.097 176.208 296.062 175.813 295.262 175.024C294.473 174.224 294.078 173.216 294.078 172C294.078 170.795 294.468 169.792 295.246 168.992C296.025 168.192 297.033 167.792 298.27 167.792C299.444 167.792 300.398 168.208 301.134 169.04C301.881 169.861 302.254 170.853 302.254 172.016C302.254 172.219 302.238 172.427 302.206 172.64H295.502ZM298.27 169.104C297.524 169.104 296.905 169.317 296.414 169.744C295.924 170.16 295.62 170.72 295.502 171.424H300.846C300.729 170.667 300.43 170.091 299.95 169.696C299.47 169.301 298.91 169.104 298.27 169.104ZM310.463 168H311.855V176H310.463V174.624C309.769 175.68 308.761 176.208 307.439 176.208C306.319 176.208 305.364 175.803 304.575 174.992C303.785 174.171 303.391 173.173 303.391 172C303.391 170.827 303.785 169.835 304.575 169.024C305.364 168.203 306.319 167.792 307.439 167.792C308.761 167.792 309.769 168.32 310.463 169.376V168ZM307.615 174.864C308.425 174.864 309.103 174.592 309.647 174.048C310.191 173.493 310.463 172.811 310.463 172C310.463 171.189 310.191 170.512 309.647 169.968C309.103 169.413 308.425 169.136 307.615 169.136C306.815 169.136 306.143 169.413 305.599 169.968C305.055 170.512 304.783 171.189 304.783 172C304.783 172.811 305.055 173.493 305.599 174.048C306.143 174.592 306.815 174.864 307.615 174.864ZM322.604 167.792C323.5 167.792 324.225 168.085 324.78 168.672C325.334 169.248 325.612 170.032 325.612 171.024V176H324.22V171.072C324.22 170.453 324.06 169.973 323.74 169.632C323.42 169.291 322.993 169.12 322.46 169.12C321.862 169.12 321.382 169.323 321.02 169.728C320.668 170.123 320.492 170.731 320.492 171.552V176H319.1V171.072C319.1 170.453 318.945 169.973 318.636 169.632C318.337 169.291 317.926 169.12 317.404 169.12C316.817 169.12 316.326 169.323 315.932 169.728C315.548 170.133 315.356 170.741 315.356 171.552V176H313.964V168H315.356V169.072C315.9 168.219 316.694 167.792 317.74 167.792C318.817 167.792 319.601 168.245 320.092 169.152C320.646 168.245 321.484 167.792 322.604 167.792ZM327.542 176V164.32H328.934V176H327.542ZM332.033 172.64C332.172 173.355 332.497 173.909 333.009 174.304C333.532 174.699 334.172 174.896 334.929 174.896C335.985 174.896 336.753 174.507 337.233 173.728L338.417 174.4C337.639 175.605 336.465 176.208 334.897 176.208C333.628 176.208 332.593 175.813 331.793 175.024C331.004 174.224 330.609 173.216 330.609 172C330.609 170.795 330.999 169.792 331.777 168.992C332.556 168.192 333.564 167.792 334.801 167.792C335.975 167.792 336.929 168.208 337.665 169.04C338.412 169.861 338.785 170.853 338.785 172.016C338.785 172.219 338.769 172.427 338.737 172.64H332.033ZM334.801 169.104C334.055 169.104 333.436 169.317 332.945 169.744C332.455 170.16 332.151 170.72 332.033 171.424H337.377C337.26 170.667 336.961 170.091 336.481 169.696C336.001 169.301 335.441 169.104 334.801 169.104ZM341.273 170.16C341.273 170.469 341.428 170.72 341.737 170.912C342.046 171.093 342.42 171.243 342.857 171.36C343.294 171.467 343.732 171.595 344.169 171.744C344.606 171.883 344.98 172.128 345.289 172.48C345.598 172.821 345.753 173.264 345.753 173.808C345.753 174.533 345.47 175.115 344.905 175.552C344.35 175.989 343.636 176.208 342.761 176.208C341.982 176.208 341.316 176.037 340.761 175.696C340.206 175.355 339.812 174.901 339.577 174.336L340.777 173.648C340.905 174.032 341.145 174.336 341.497 174.56C341.849 174.784 342.27 174.896 342.761 174.896C343.22 174.896 343.598 174.811 343.897 174.64C344.196 174.459 344.345 174.181 344.345 173.808C344.345 173.499 344.19 173.253 343.881 173.072C343.572 172.88 343.198 172.731 342.761 172.624C342.324 172.507 341.886 172.373 341.449 172.224C341.012 172.075 340.638 171.829 340.329 171.488C340.02 171.147 339.865 170.709 339.865 170.176C339.865 169.483 340.132 168.912 340.665 168.464C341.209 168.016 341.886 167.792 342.697 167.792C343.348 167.792 343.924 167.941 344.425 168.24C344.937 168.528 345.321 168.933 345.577 169.456L344.409 170.112C344.121 169.429 343.55 169.088 342.697 169.088C342.302 169.088 341.966 169.184 341.689 169.376C341.412 169.557 341.273 169.819 341.273 170.16ZM348.101 170.16C348.101 170.469 348.256 170.72 348.565 170.912C348.875 171.093 349.248 171.243 349.685 171.36C350.123 171.467 350.56 171.595 350.997 171.744C351.435 171.883 351.808 172.128 352.117 172.48C352.427 172.821 352.581 173.264 352.581 173.808C352.581 174.533 352.299 175.115 351.733 175.552C351.179 175.989 350.464 176.208 349.589 176.208C348.811 176.208 348.144 176.037 347.589 175.696C347.035 175.355 346.64 174.901 346.405 174.336L347.605 173.648C347.733 174.032 347.973 174.336 348.325 174.56C348.677 174.784 349.099 174.896 349.589 174.896C350.048 174.896 350.427 174.811 350.725 174.64C351.024 174.459 351.173 174.181 351.173 173.808C351.173 173.499 351.019 173.253 350.709 173.072C350.4 172.88 350.027 172.731 349.589 172.624C349.152 172.507 348.715 172.373 348.277 172.224C347.84 172.075 347.467 171.829 347.157 171.488C346.848 171.147 346.693 170.709 346.693 170.176C346.693 169.483 346.96 168.912 347.493 168.464C348.037 168.016 348.715 167.792 349.525 167.792C350.176 167.792 350.752 167.941 351.253 168.24C351.765 168.528 352.149 168.933 352.405 169.456L351.237 170.112C350.949 169.429 350.379 169.088 349.525 169.088C349.131 169.088 348.795 169.184 348.517 169.376C348.24 169.557 348.101 169.819 348.101 170.16ZM354.151 176V164.32H355.543V176H354.151ZM363.251 168H364.739L361.475 176.496C361.134 177.403 360.654 178.091 360.035 178.56C359.427 179.04 358.723 179.253 357.923 179.2V177.904C358.904 177.979 359.624 177.435 360.083 176.272L360.227 175.968L356.739 168H358.227L360.947 174.272L363.251 168ZM374.253 169.344H372.125V173.68C372.125 174.075 372.2 174.357 372.349 174.528C372.509 174.688 372.749 174.773 373.069 174.784C373.389 174.784 373.784 174.773 374.253 174.752V176C373.037 176.16 372.147 176.064 371.581 175.712C371.016 175.349 370.733 174.672 370.733 173.68V169.344H369.149V168H370.733V166.176L372.125 165.76V168H374.253V169.344ZM377.34 169.344C377.799 168.352 378.631 167.856 379.836 167.856V169.312C379.153 169.28 378.567 169.461 378.076 169.856C377.585 170.251 377.34 170.885 377.34 171.76V176H375.948V168H377.34V169.344ZM387.385 168H388.777V176H387.385V174.624C386.691 175.68 385.683 176.208 384.361 176.208C383.241 176.208 382.286 175.803 381.497 174.992C380.707 174.171 380.313 173.173 380.313 172C380.313 170.827 380.707 169.835 381.497 169.024C382.286 168.203 383.241 167.792 384.361 167.792C385.683 167.792 386.691 168.32 387.385 169.376V168ZM384.537 174.864C385.347 174.864 386.025 174.592 386.569 174.048C387.113 173.493 387.385 172.811 387.385 172C387.385 171.189 387.113 170.512 386.569 169.968C386.025 169.413 385.347 169.136 384.537 169.136C383.737 169.136 383.065 169.413 382.521 169.968C381.977 170.512 381.705 171.189 381.705 172C381.705 172.811 381.977 173.493 382.521 174.048C383.065 174.592 383.737 174.864 384.537 174.864ZM394.87 167.792C395.808 167.792 396.56 168.091 397.126 168.688C397.691 169.275 397.974 170.075 397.974 171.088V176H396.582V171.168C396.582 170.517 396.406 170.016 396.054 169.664C395.702 169.301 395.216 169.12 394.598 169.12C393.904 169.12 393.344 169.339 392.918 169.776C392.491 170.203 392.278 170.864 392.278 171.76V176H390.886V168H392.278V169.152C392.843 168.245 393.707 167.792 394.87 167.792ZM401.117 170.16C401.117 170.469 401.272 170.72 401.581 170.912C401.89 171.093 402.264 171.243 402.701 171.36C403.138 171.467 403.576 171.595 404.013 171.744C404.45 171.883 404.824 172.128 405.133 172.48C405.442 172.821 405.597 173.264 405.597 173.808C405.597 174.533 405.314 175.115 404.749 175.552C404.194 175.989 403.48 176.208 402.605 176.208C401.826 176.208 401.16 176.037 400.605 175.696C400.05 175.355 399.656 174.901 399.421 174.336L400.621 173.648C400.749 174.032 400.989 174.336 401.341 174.56C401.693 174.784 402.114 174.896 402.605 174.896C403.064 174.896 403.442 174.811 403.741 174.64C404.04 174.459 404.189 174.181 404.189 173.808C404.189 173.499 404.034 173.253 403.725 173.072C403.416 172.88 403.042 172.731 402.605 172.624C402.168 172.507 401.73 172.373 401.293 172.224C400.856 172.075 400.482 171.829 400.173 171.488C399.864 171.147 399.709 170.709 399.709 170.176C399.709 169.483 399.976 168.912 400.509 168.464C401.053 168.016 401.73 167.792 402.541 167.792C403.192 167.792 403.768 167.941 404.269 168.24C404.781 168.528 405.165 168.933 405.421 169.456L404.253 170.112C403.965 169.429 403.394 169.088 402.541 169.088C402.146 169.088 401.81 169.184 401.533 169.376C401.256 169.557 401.117 169.819 401.117 170.16ZM411.185 165.936C409.777 165.819 409.073 166.427 409.073 167.76V168H411.185V169.344H409.073V176H407.681V169.344H406.401V168H407.681V167.76C407.681 166.683 407.98 165.867 408.577 165.312C409.185 164.757 410.054 164.517 411.185 164.592V165.936ZM418.559 174.992C417.738 175.803 416.741 176.208 415.567 176.208C414.394 176.208 413.397 175.803 412.575 174.992C411.765 174.181 411.359 173.184 411.359 172C411.359 170.816 411.765 169.819 412.575 169.008C413.397 168.197 414.394 167.792 415.567 167.792C416.741 167.792 417.738 168.197 418.559 169.008C419.381 169.819 419.791 170.816 419.791 172C419.791 173.184 419.381 174.181 418.559 174.992ZM415.567 174.848C416.367 174.848 417.039 174.576 417.583 174.032C418.127 173.488 418.399 172.811 418.399 172C418.399 171.189 418.127 170.512 417.583 169.968C417.039 169.424 416.367 169.152 415.567 169.152C414.778 169.152 414.111 169.424 413.567 169.968C413.023 170.512 412.751 171.189 412.751 172C412.751 172.811 413.023 173.488 413.567 174.032C414.111 174.576 414.778 174.848 415.567 174.848ZM422.824 169.344C423.283 168.352 424.115 167.856 425.32 167.856V169.312C424.638 169.28 424.051 169.461 423.56 169.856C423.07 170.251 422.824 170.885 422.824 171.76V176H421.432V168H422.824V169.344ZM435.322 167.792C436.218 167.792 436.944 168.085 437.498 168.672C438.053 169.248 438.33 170.032 438.33 171.024V176H436.938V171.072C436.938 170.453 436.778 169.973 436.458 169.632C436.138 169.291 435.712 169.12 435.178 169.12C434.581 169.12 434.101 169.323 433.738 169.728C433.386 170.123 433.21 170.731 433.21 171.552V176H431.818V171.072C431.818 170.453 431.664 169.973 431.354 169.632C431.056 169.291 430.645 169.12 430.122 169.12C429.536 169.12 429.045 169.323 428.65 169.728C428.266 170.133 428.074 170.741 428.074 171.552V176H426.682V168H428.074V169.072C428.618 168.219 429.413 167.792 430.458 167.792C431.536 167.792 432.32 168.245 432.81 169.152C433.365 168.245 434.202 167.792 435.322 167.792ZM449.845 168H451.333L448.069 176.496C447.727 177.403 447.247 178.091 446.629 178.56C446.021 179.04 445.317 179.253 444.517 179.2V177.904C445.498 177.979 446.218 177.435 446.677 176.272L446.821 175.968L443.333 168H444.821L447.541 174.272L449.845 168ZM458.934 174.992C458.113 175.803 457.116 176.208 455.942 176.208C454.769 176.208 453.772 175.803 452.95 174.992C452.14 174.181 451.734 173.184 451.734 172C451.734 170.816 452.14 169.819 452.95 169.008C453.772 168.197 454.769 167.792 455.942 167.792C457.116 167.792 458.113 168.197 458.934 169.008C459.756 169.819 460.166 170.816 460.166 172C460.166 173.184 459.756 174.181 458.934 174.992ZM455.942 174.848C456.742 174.848 457.414 174.576 457.958 174.032C458.502 173.488 458.774 172.811 458.774 172C458.774 171.189 458.502 170.512 457.958 169.968C457.414 169.424 456.742 169.152 455.942 169.152C455.153 169.152 454.486 169.424 453.942 169.968C453.398 170.512 453.126 171.189 453.126 172C453.126 172.811 453.398 173.488 453.942 174.032C454.486 174.576 455.153 174.848 455.942 174.848ZM467.327 168H468.719V176H467.327V174.848C466.762 175.755 465.898 176.208 464.735 176.208C463.797 176.208 463.045 175.915 462.479 175.328C461.914 174.731 461.631 173.925 461.631 172.912V168H463.023V172.832C463.023 173.483 463.199 173.989 463.551 174.352C463.903 174.704 464.389 174.88 465.007 174.88C465.701 174.88 466.261 174.667 466.687 174.24C467.114 173.803 467.327 173.136 467.327 172.24V168ZM472.231 169.344C472.689 168.352 473.521 167.856 474.727 167.856V169.312C474.044 169.28 473.457 169.461 472.967 169.856C472.476 170.251 472.231 170.885 472.231 171.76V176H470.839V168H472.231V169.344ZM480.089 176V164.32H481.481V176H480.089ZM490.356 174.992C489.535 175.803 488.538 176.208 487.364 176.208C486.191 176.208 485.194 175.803 484.372 174.992C483.562 174.181 483.156 173.184 483.156 172C483.156 170.816 483.562 169.819 484.372 169.008C485.194 168.197 486.191 167.792 487.364 167.792C488.538 167.792 489.535 168.197 490.356 169.008C491.178 169.819 491.588 170.816 491.588 172C491.588 173.184 491.178 174.181 490.356 174.992ZM487.364 174.848C488.164 174.848 488.836 174.576 489.38 174.032C489.924 173.488 490.196 172.811 490.196 172C490.196 171.189 489.924 170.512 489.38 169.968C488.836 169.424 488.164 169.152 487.364 169.152C486.575 169.152 485.908 169.424 485.364 169.968C484.82 170.512 484.548 171.189 484.548 172C484.548 172.811 484.82 173.488 485.364 174.032C485.908 174.576 486.575 174.848 487.364 174.848ZM497.213 167.792C498.152 167.792 498.904 168.091 499.469 168.688C500.035 169.275 500.317 170.075 500.317 171.088V176H498.925V171.168C498.925 170.517 498.749 170.016 498.397 169.664C498.045 169.301 497.56 169.12 496.941 169.12C496.248 169.12 495.688 169.339 495.261 169.776C494.835 170.203 494.621 170.864 494.621 171.76V176H493.229V168H494.621V169.152C495.187 168.245 496.051 167.792 497.213 167.792ZM508.901 168H510.277V175.664C510.277 176.848 509.877 177.765 509.077 178.416C508.277 179.077 507.317 179.408 506.197 179.408C505.301 179.408 504.527 179.237 503.877 178.896C503.226 178.565 502.735 178.085 502.405 177.456L503.621 176.768C504.058 177.664 504.927 178.112 506.229 178.112C507.061 178.112 507.711 177.893 508.181 177.456C508.661 177.019 508.901 176.421 508.901 175.664V174.528C508.197 175.595 507.194 176.128 505.893 176.128C504.751 176.128 503.786 175.723 502.997 174.912C502.207 174.101 501.813 173.115 501.813 171.952C501.813 170.789 502.207 169.808 502.997 169.008C503.786 168.197 504.751 167.792 505.893 167.792C507.205 167.792 508.207 168.32 508.901 169.376V168ZM504.021 173.984C504.565 174.528 505.242 174.8 506.053 174.8C506.863 174.8 507.541 174.528 508.085 173.984C508.629 173.44 508.901 172.763 508.901 171.952C508.901 171.152 508.629 170.48 508.085 169.936C507.541 169.392 506.863 169.12 506.053 169.12C505.242 169.12 504.565 169.392 504.021 169.936C503.477 170.48 503.205 171.152 503.205 171.952C503.205 172.763 503.477 173.44 504.021 173.984ZM523.618 175.136C522.839 175.851 521.831 176.208 520.594 176.208C519.356 176.208 518.343 175.851 517.554 175.136C516.775 174.411 516.386 173.445 516.386 172.24V164.8H517.874V172.176C517.874 172.965 518.108 173.595 518.578 174.064C519.047 174.523 519.719 174.752 520.594 174.752C521.468 174.752 522.14 174.523 522.61 174.064C523.079 173.595 523.314 172.965 523.314 172.176V164.8H524.786V172.24C524.786 173.445 524.396 174.411 523.618 175.136ZM533.701 176L531.189 171.712H528.549V176H527.061V164.8H531.541C532.501 164.8 533.322 165.141 534.005 165.824C534.688 166.496 535.029 167.312 535.029 168.272C535.029 168.997 534.81 169.659 534.373 170.256C533.946 170.853 533.392 171.275 532.709 171.52L535.349 176H533.701ZM528.549 166.192V170.368H531.541C532.096 170.368 532.565 170.165 532.949 169.76C533.344 169.344 533.541 168.848 533.541 168.272C533.541 167.696 533.344 167.205 532.949 166.8C532.565 166.395 532.096 166.192 531.541 166.192H528.549ZM538.33 174.592H543.162V176H536.842V164.8H538.33V174.592ZM545.711 170.16C545.711 170.469 545.865 170.72 546.175 170.912C546.484 171.093 546.857 171.243 547.295 171.36C547.732 171.467 548.169 171.595 548.607 171.744C549.044 171.883 549.417 172.128 549.727 172.48C550.036 172.821 550.191 173.264 550.191 173.808C550.191 174.533 549.908 175.115 549.343 175.552C548.788 175.989 548.073 176.208 547.199 176.208C546.42 176.208 545.753 176.037 545.199 175.696C544.644 175.355 544.249 174.901 544.015 174.336L545.215 173.648C545.343 174.032 545.583 174.336 545.935 174.56C546.287 174.784 546.708 174.896 547.199 174.896C547.657 174.896 548.036 174.811 548.335 174.64C548.633 174.459 548.783 174.181 548.783 173.808C548.783 173.499 548.628 173.253 548.319 173.072C548.009 172.88 547.636 172.731 547.199 172.624C546.761 172.507 546.324 172.373 545.887 172.224C545.449 172.075 545.076 171.829 544.767 171.488C544.457 171.147 544.303 170.709 544.303 170.176C544.303 169.483 544.569 168.912 545.103 168.464C545.647 168.016 546.324 167.792 547.135 167.792C547.785 167.792 548.361 167.941 548.863 168.24C549.375 168.528 549.759 168.933 550.015 169.456L548.847 170.112C548.559 169.429 547.988 169.088 547.135 169.088C546.74 169.088 546.404 169.184 546.127 169.376C545.849 169.557 545.711 169.819 545.711 170.16ZM556.543 166.544C556.276 166.544 556.052 166.453 555.871 166.272C555.689 166.091 555.599 165.872 555.599 165.616C555.599 165.36 555.689 165.141 555.871 164.96C556.052 164.768 556.276 164.672 556.543 164.672C556.799 164.672 557.017 164.768 557.199 164.96C557.38 165.141 557.471 165.36 557.471 165.616C557.471 165.872 557.38 166.091 557.199 166.272C557.017 166.453 556.799 166.544 556.543 166.544ZM555.839 176V168H557.231V176H555.839ZM563.338 167.792C564.277 167.792 565.029 168.091 565.594 168.688C566.16 169.275 566.442 170.075 566.442 171.088V176H565.05V171.168C565.05 170.517 564.874 170.016 564.522 169.664C564.17 169.301 563.685 169.12 563.066 169.12C562.373 169.12 561.813 169.339 561.386 169.776C560.96 170.203 560.746 170.864 560.746 171.76V176H559.354V168H560.746V169.152C561.312 168.245 562.176 167.792 563.338 167.792ZM572.738 169.344H570.61V173.68C570.61 174.075 570.684 174.357 570.834 174.528C570.994 174.688 571.234 174.773 571.554 174.784C571.874 174.784 572.268 174.773 572.738 174.752V176C571.522 176.16 570.631 176.064 570.066 175.712C569.5 175.349 569.218 174.672 569.218 173.68V169.344H567.634V168H569.218V166.176L570.61 165.76V168H572.738V169.344ZM580.731 174.992C579.91 175.803 578.913 176.208 577.739 176.208C576.566 176.208 575.569 175.803 574.747 174.992C573.937 174.181 573.531 173.184 573.531 172C573.531 170.816 573.937 169.819 574.747 169.008C575.569 168.197 576.566 167.792 577.739 167.792C578.913 167.792 579.91 168.197 580.731 169.008C581.553 169.819 581.963 170.816 581.963 172C581.963 173.184 581.553 174.181 580.731 174.992ZM577.739 174.848C578.539 174.848 579.211 174.576 579.755 174.032C580.299 173.488 580.571 172.811 580.571 172C580.571 171.189 580.299 170.512 579.755 169.968C579.211 169.424 578.539 169.152 577.739 169.152C576.95 169.152 576.283 169.424 575.739 169.968C575.195 170.512 574.923 171.189 574.923 172C574.923 172.811 575.195 173.488 575.739 174.032C576.283 174.576 576.95 174.848 577.739 174.848ZM591.332 176.208C590.127 176.208 589.119 175.803 588.308 174.992C587.508 174.181 587.108 173.184 587.108 172C587.108 170.805 587.508 169.808 588.308 169.008C589.119 168.197 590.127 167.792 591.332 167.792C592.111 167.792 592.82 167.979 593.46 168.352C594.1 168.725 594.58 169.227 594.9 169.856L593.412 170.72C593.231 170.336 592.954 170.037 592.58 169.824C592.218 169.6 591.796 169.488 591.316 169.488C590.612 169.488 590.02 169.728 589.54 170.208C589.071 170.688 588.836 171.285 588.836 172C588.836 172.715 589.071 173.312 589.54 173.792C590.02 174.272 590.612 174.512 591.316 174.512C591.786 174.512 592.207 174.4 592.58 174.176C592.964 173.952 593.252 173.653 593.444 173.28L594.932 174.128C594.591 174.768 594.1 175.275 593.46 175.648C592.82 176.021 592.111 176.208 591.332 176.208ZM599.832 176.208C598.659 176.208 597.662 175.803 596.84 174.992C596.019 174.181 595.608 173.184 595.608 172C595.608 170.816 596.019 169.819 596.84 169.008C597.662 168.197 598.659 167.792 599.832 167.792C601.016 167.792 602.014 168.197 602.824 169.008C603.646 169.819 604.056 170.816 604.056 172C604.056 173.184 603.646 174.181 602.824 174.992C602.014 175.803 601.016 176.208 599.832 176.208ZM598.056 173.808C598.536 174.288 599.128 174.528 599.832 174.528C600.536 174.528 601.128 174.288 601.608 173.808C602.088 173.328 602.328 172.725 602.328 172C602.328 171.275 602.088 170.672 601.608 170.192C601.128 169.712 600.536 169.472 599.832 169.472C599.128 169.472 598.536 169.712 598.056 170.192C597.576 170.672 597.336 171.275 597.336 172C597.336 172.725 597.576 173.328 598.056 173.808ZM609.827 167.792C610.744 167.792 611.486 168.085 612.051 168.672C612.616 169.259 612.899 170.064 612.899 171.088V176H611.171V171.264C611.171 170.667 611.011 170.208 610.691 169.888C610.371 169.568 609.934 169.408 609.379 169.408C608.771 169.408 608.28 169.6 607.907 169.984C607.534 170.357 607.347 170.933 607.347 171.712V176H605.619V168H607.347V169.024C607.87 168.203 608.696 167.792 609.827 167.792ZM618.535 176.208C617.33 176.208 616.322 175.803 615.511 174.992C614.711 174.181 614.311 173.184 614.311 172C614.311 170.805 614.711 169.808 615.511 169.008C616.322 168.197 617.33 167.792 618.535 167.792C619.314 167.792 620.023 167.979 620.663 168.352C621.303 168.725 621.783 169.227 622.103 169.856L620.615 170.72C620.434 170.336 620.157 170.037 619.783 169.824C619.421 169.6 618.999 169.488 618.519 169.488C617.815 169.488 617.223 169.728 616.743 170.208C616.274 170.688 616.039 171.285 616.039 172C616.039 172.715 616.274 173.312 616.743 173.792C617.223 174.272 617.815 174.512 618.519 174.512C618.989 174.512 619.41 174.4 619.783 174.176C620.167 173.952 620.455 173.653 620.647 173.28L622.135 174.128C621.794 174.768 621.303 175.275 620.663 175.648C620.023 176.021 619.314 176.208 618.535 176.208ZM625.016 166.48C624.803 166.693 624.547 166.8 624.248 166.8C623.95 166.8 623.688 166.693 623.464 166.48C623.251 166.256 623.144 165.995 623.144 165.696C623.144 165.397 623.251 165.141 623.464 164.928C623.678 164.704 623.939 164.592 624.248 164.592C624.558 164.592 624.819 164.704 625.032 164.928C625.246 165.141 625.352 165.397 625.352 165.696C625.352 165.995 625.24 166.256 625.016 166.48ZM623.384 176V168H625.112V176H623.384ZM628.624 170.208C628.624 170.475 628.768 170.688 629.056 170.848C629.355 170.997 629.712 171.131 630.128 171.248C630.555 171.355 630.981 171.483 631.408 171.632C631.835 171.781 632.192 172.037 632.48 172.4C632.779 172.752 632.928 173.2 632.928 173.744C632.928 174.512 632.629 175.115 632.032 175.552C631.445 175.989 630.704 176.208 629.808 176.208C629.019 176.208 628.341 176.043 627.776 175.712C627.211 175.381 626.8 174.923 626.544 174.336L628.032 173.472C628.309 174.24 628.901 174.624 629.808 174.624C630.715 174.624 631.168 174.325 631.168 173.728C631.168 173.472 631.019 173.264 630.72 173.104C630.432 172.944 630.075 172.811 629.648 172.704C629.232 172.587 628.811 172.453 628.384 172.304C627.957 172.155 627.595 171.909 627.296 171.568C627.008 171.216 626.864 170.773 626.864 170.24C626.864 169.504 627.141 168.912 627.696 168.464C628.261 168.016 628.96 167.792 629.792 167.792C630.453 167.792 631.04 167.941 631.552 168.24C632.075 168.528 632.475 168.933 632.752 169.456L631.296 170.272C631.019 169.664 630.517 169.36 629.792 169.36C629.461 169.36 629.184 169.435 628.96 169.584C628.736 169.723 628.624 169.931 628.624 170.208ZM635.604 172.736C635.732 173.344 636.025 173.813 636.484 174.144C636.943 174.464 637.503 174.624 638.164 174.624C639.081 174.624 639.769 174.293 640.228 173.632L641.652 174.464C640.863 175.627 639.695 176.208 638.148 176.208C636.847 176.208 635.796 175.813 634.996 175.024C634.196 174.224 633.796 173.216 633.796 172C633.796 170.805 634.191 169.808 634.98 169.008C635.769 168.197 636.783 167.792 638.02 167.792C639.193 167.792 640.153 168.203 640.9 169.024C641.657 169.845 642.036 170.843 642.036 172.016C642.036 172.197 642.015 172.437 641.972 172.736H635.604ZM635.588 171.328H640.292C640.175 170.677 639.903 170.187 639.476 169.856C639.06 169.525 638.569 169.36 638.004 169.36C637.364 169.36 636.831 169.536 636.404 169.888C635.977 170.24 635.705 170.72 635.588 171.328ZM328.541 192H329.933V200H328.541V198.624C327.848 199.68 326.84 200.208 325.517 200.208C324.397 200.208 323.442 199.803 322.653 198.992C321.864 198.171 321.469 197.173 321.469 196C321.469 194.827 321.864 193.835 322.653 193.024C323.442 192.203 324.397 191.792 325.517 191.792C326.84 191.792 327.848 192.32 328.541 193.376V192ZM325.693 198.864C326.504 198.864 327.181 198.592 327.725 198.048C328.269 197.493 328.541 196.811 328.541 196C328.541 195.189 328.269 194.512 327.725 193.968C327.181 193.413 326.504 193.136 325.693 193.136C324.893 193.136 324.221 193.413 323.677 193.968C323.133 194.512 322.861 195.189 322.861 196C322.861 196.811 323.133 197.493 323.677 198.048C324.221 198.592 324.893 198.864 325.693 198.864ZM336.026 191.792C336.965 191.792 337.717 192.091 338.282 192.688C338.847 193.275 339.13 194.075 339.13 195.088V200H337.738V195.168C337.738 194.517 337.562 194.016 337.21 193.664C336.858 193.301 336.373 193.12 335.754 193.12C335.061 193.12 334.501 193.339 334.074 193.776C333.647 194.203 333.434 194.864 333.434 195.76V200H332.042V192H333.434V193.152C333.999 192.245 334.863 191.792 336.026 191.792ZM347.697 188.8H349.089V200H347.697V198.624C347.004 199.68 345.996 200.208 344.673 200.208C343.553 200.208 342.598 199.803 341.809 198.992C341.02 198.171 340.625 197.173 340.625 196C340.625 194.827 341.02 193.835 341.809 193.024C342.598 192.203 343.553 191.792 344.673 191.792C345.996 191.792 347.004 192.32 347.697 193.376V188.8ZM344.849 198.864C345.66 198.864 346.337 198.592 346.881 198.048C347.425 197.493 347.697 196.811 347.697 196C347.697 195.189 347.425 194.512 346.881 193.968C346.337 193.413 345.66 193.136 344.849 193.136C344.049 193.136 343.377 193.413 342.833 193.968C342.289 194.512 342.017 195.189 342.017 196C342.017 196.811 342.289 197.493 342.833 198.048C343.377 198.592 344.049 198.864 344.849 198.864ZM356.702 194.208C356.702 194.475 356.846 194.688 357.134 194.848C357.433 194.997 357.79 195.131 358.206 195.248C358.633 195.355 359.059 195.483 359.486 195.632C359.913 195.781 360.27 196.037 360.558 196.4C360.857 196.752 361.006 197.2 361.006 197.744C361.006 198.512 360.707 199.115 360.11 199.552C359.523 199.989 358.782 200.208 357.886 200.208C357.097 200.208 356.419 200.043 355.854 199.712C355.289 199.381 354.878 198.923 354.622 198.336L356.11 197.472C356.387 198.24 356.979 198.624 357.886 198.624C358.793 198.624 359.246 198.325 359.246 197.728C359.246 197.472 359.097 197.264 358.798 197.104C358.51 196.944 358.153 196.811 357.726 196.704C357.31 196.587 356.889 196.453 356.462 196.304C356.035 196.155 355.673 195.909 355.374 195.568C355.086 195.216 354.942 194.773 354.942 194.24C354.942 193.504 355.219 192.912 355.774 192.464C356.339 192.016 357.038 191.792 357.87 191.792C358.531 191.792 359.118 191.941 359.63 192.24C360.153 192.528 360.553 192.933 360.83 193.456L359.374 194.272C359.097 193.664 358.595 193.36 357.87 193.36C357.539 193.36 357.262 193.435 357.038 193.584C356.814 193.723 356.702 193.931 356.702 194.208ZM366.639 191.792C367.557 191.792 368.298 192.085 368.863 192.672C369.429 193.259 369.711 194.064 369.711 195.088V200H367.983V195.264C367.983 194.667 367.823 194.208 367.503 193.888C367.183 193.568 366.746 193.408 366.191 193.408C365.583 193.408 365.093 193.6 364.719 193.984C364.346 194.357 364.159 194.933 364.159 195.712V200H362.431V188.8H364.159V193.024C364.682 192.203 365.509 191.792 366.639 191.792ZM377.908 192H379.636V200H377.908V198.848C377.257 199.755 376.324 200.208 375.108 200.208C374.009 200.208 373.071 199.803 372.292 198.992C371.513 198.171 371.124 197.173 371.124 196C371.124 194.816 371.513 193.819 372.292 193.008C373.071 192.197 374.009 191.792 375.108 191.792C376.324 191.792 377.257 192.24 377.908 193.136V192ZM373.572 197.84C374.052 198.32 374.655 198.56 375.38 198.56C376.105 198.56 376.708 198.32 377.188 197.84C377.668 197.349 377.908 196.736 377.908 196C377.908 195.264 377.668 194.656 377.188 194.176C376.708 193.685 376.105 193.44 375.38 193.44C374.655 193.44 374.052 193.685 373.572 194.176C373.092 194.656 372.852 195.264 372.852 196C372.852 196.736 373.092 197.349 373.572 197.84ZM383.378 193.344C383.815 192.352 384.637 191.856 385.842 191.856V193.728C385.181 193.685 384.605 193.845 384.114 194.208C383.623 194.56 383.378 195.147 383.378 195.968V200H381.65V192H383.378V193.344ZM388.104 196.736C388.232 197.344 388.525 197.813 388.984 198.144C389.443 198.464 390.003 198.624 390.664 198.624C391.581 198.624 392.269 198.293 392.728 197.632L394.152 198.464C393.363 199.627 392.195 200.208 390.648 200.208C389.347 200.208 388.296 199.813 387.496 199.024C386.696 198.224 386.296 197.216 386.296 196C386.296 194.805 386.691 193.808 387.48 193.008C388.269 192.197 389.283 191.792 390.52 191.792C391.693 191.792 392.653 192.203 393.4 193.024C394.157 193.845 394.536 194.843 394.536 196.016C394.536 196.197 394.515 196.437 394.472 196.736H388.104ZM388.088 195.328H392.792C392.675 194.677 392.403 194.187 391.976 193.856C391.56 193.525 391.069 193.36 390.504 193.36C389.864 193.36 389.331 193.536 388.904 193.888C388.477 194.24 388.205 194.72 388.088 195.328ZM402.345 192H404.073V200H402.345V198.848C401.695 199.755 400.761 200.208 399.545 200.208C398.447 200.208 397.508 199.803 396.729 198.992C395.951 198.171 395.561 197.173 395.561 196C395.561 194.816 395.951 193.819 396.729 193.008C397.508 192.197 398.447 191.792 399.545 191.792C400.761 191.792 401.695 192.24 402.345 193.136V192ZM398.009 197.84C398.489 198.32 399.092 198.56 399.817 198.56C400.543 198.56 401.145 198.32 401.625 197.84C402.105 197.349 402.345 196.736 402.345 196C402.345 195.264 402.105 194.656 401.625 194.176C401.145 193.685 400.543 193.44 399.817 193.44C399.092 193.44 398.489 193.685 398.009 194.176C397.529 194.656 397.289 195.264 397.289 196C397.289 196.736 397.529 197.349 398.009 197.84ZM410.616 191.792C411.714 191.792 412.653 192.197 413.432 193.008C414.21 193.819 414.6 194.816 414.6 196C414.6 197.173 414.21 198.171 413.432 198.992C412.653 199.803 411.714 200.208 410.616 200.208C409.4 200.208 408.466 199.755 407.816 198.848V200H406.088V188.8H407.816V193.136C408.466 192.24 409.4 191.792 410.616 191.792ZM408.536 197.84C409.016 198.32 409.618 198.56 410.344 198.56C411.069 198.56 411.672 198.32 412.152 197.84C412.632 197.349 412.872 196.736 412.872 196C412.872 195.264 412.632 194.656 412.152 194.176C411.672 193.685 411.069 193.44 410.344 193.44C409.618 193.44 409.016 193.685 408.536 194.176C408.056 194.656 407.816 195.264 407.816 196C407.816 196.736 408.056 197.349 408.536 197.84ZM416.166 200V188.32H417.894V200H416.166ZM421.26 196.736C421.388 197.344 421.681 197.813 422.14 198.144C422.599 198.464 423.159 198.624 423.82 198.624C424.737 198.624 425.425 198.293 425.884 197.632L427.308 198.464C426.519 199.627 425.351 200.208 423.804 200.208C422.503 200.208 421.452 199.813 420.652 199.024C419.852 198.224 419.452 197.216 419.452 196C419.452 194.805 419.847 193.808 420.636 193.008C421.425 192.197 422.439 191.792 423.676 191.792C424.849 191.792 425.809 192.203 426.556 193.024C427.313 193.845 427.692 194.843 427.692 196.016C427.692 196.197 427.671 196.437 427.628 196.736H421.26ZM421.244 195.328H425.948C425.831 194.677 425.559 194.187 425.132 193.856C424.716 193.525 424.225 193.36 423.66 193.36C423.02 193.36 422.487 193.536 422.06 193.888C421.633 194.24 421.361 194.72 421.244 195.328ZM433.213 200V188.32H434.941V200H433.213ZM438.579 190.48C438.366 190.693 438.11 190.8 437.811 190.8C437.512 190.8 437.251 190.693 437.027 190.48C436.814 190.256 436.707 189.995 436.707 189.696C436.707 189.397 436.814 189.141 437.027 188.928C437.24 188.704 437.502 188.592 437.811 188.592C438.12 188.592 438.382 188.704 438.595 188.928C438.808 189.141 438.915 189.397 438.915 189.696C438.915 189.995 438.803 190.256 438.579 190.48ZM436.947 200V192H438.675V200H436.947ZM444.889 191.792C445.807 191.792 446.548 192.085 447.113 192.672C447.679 193.259 447.961 194.064 447.961 195.088V200H446.233V195.264C446.233 194.667 446.073 194.208 445.753 193.888C445.433 193.568 444.996 193.408 444.441 193.408C443.833 193.408 443.343 193.6 442.969 193.984C442.596 194.357 442.409 194.933 442.409 195.712V200H440.681V192H442.409V193.024C442.932 192.203 443.759 191.792 444.889 191.792ZM456.894 200H454.83L451.55 196.304V200H449.822V188.8H451.55V195.536L454.654 192H456.766L453.246 195.92L456.894 200ZM459.046 194.208C459.046 194.475 459.19 194.688 459.478 194.848C459.777 194.997 460.134 195.131 460.55 195.248C460.977 195.355 461.403 195.483 461.83 195.632C462.257 195.781 462.614 196.037 462.902 196.4C463.201 196.752 463.35 197.2 463.35 197.744C463.35 198.512 463.051 199.115 462.454 199.552C461.867 199.989 461.126 200.208 460.23 200.208C459.441 200.208 458.763 200.043 458.198 199.712C457.633 199.381 457.222 198.923 456.966 198.336L458.454 197.472C458.731 198.24 459.323 198.624 460.23 198.624C461.137 198.624 461.59 198.325 461.59 197.728C461.59 197.472 461.441 197.264 461.142 197.104C460.854 196.944 460.497 196.811 460.07 196.704C459.654 196.587 459.233 196.453 458.806 196.304C458.379 196.155 458.017 195.909 457.718 195.568C457.43 195.216 457.286 194.773 457.286 194.24C457.286 193.504 457.563 192.912 458.118 192.464C458.683 192.016 459.382 191.792 460.214 191.792C460.875 191.792 461.462 191.941 461.974 192.24C462.497 192.528 462.897 192.933 463.174 193.456L461.718 194.272C461.441 193.664 460.939 193.36 460.214 193.36C459.883 193.36 459.606 193.435 459.382 193.584C459.158 193.723 459.046 193.931 459.046 194.208ZM478.341 192H479.797L477.317 200H475.893L474.021 194.08L472.149 200H470.725L468.245 192H469.701L471.461 198.08L473.349 192H474.693L476.581 198.096L478.341 192ZM481.933 190.544C481.667 190.544 481.443 190.453 481.261 190.272C481.08 190.091 480.989 189.872 480.989 189.616C480.989 189.36 481.08 189.141 481.261 188.96C481.443 188.768 481.667 188.672 481.933 188.672C482.189 188.672 482.408 188.768 482.589 188.96C482.771 189.141 482.861 189.36 482.861 189.616C482.861 189.872 482.771 190.091 482.589 190.272C482.408 190.453 482.189 190.544 481.933 190.544ZM481.229 200V192H482.621V200H481.229ZM489.097 193.344H486.969V197.68C486.969 198.075 487.044 198.357 487.193 198.528C487.353 198.688 487.593 198.773 487.913 198.784C488.233 198.784 488.628 198.773 489.097 198.752V200C487.881 200.16 486.99 200.064 486.425 199.712C485.86 199.349 485.577 198.672 485.577 197.68V193.344H483.993V192H485.577V190.176L486.969 189.76V192H489.097V193.344ZM494.729 191.792C495.668 191.792 496.42 192.091 496.985 192.688C497.55 193.275 497.833 194.075 497.833 195.088V200H496.441V195.168C496.441 194.517 496.265 194.016 495.913 193.664C495.561 193.301 495.076 193.12 494.457 193.12C493.764 193.12 493.204 193.339 492.777 193.776C492.35 194.203 492.137 194.864 492.137 195.76V200H490.745V188.8H492.137V193.152C492.702 192.245 493.566 191.792 494.729 191.792ZM504.832 190.544C504.566 190.544 504.342 190.453 504.16 190.272C503.979 190.091 503.888 189.872 503.888 189.616C503.888 189.36 503.979 189.141 504.16 188.96C504.342 188.768 504.566 188.672 504.832 188.672C505.088 188.672 505.307 188.768 505.488 188.96C505.67 189.141 505.76 189.36 505.76 189.616C505.76 189.872 505.67 190.091 505.488 190.272C505.307 190.453 505.088 190.544 504.832 190.544ZM504.128 200.48V192H505.52V200.48C505.52 201.515 505.259 202.277 504.736 202.768C504.214 203.269 503.446 203.483 502.432 203.408V202.064C503.019 202.117 503.446 202.021 503.712 201.776C503.99 201.531 504.128 201.099 504.128 200.48ZM513.156 192H514.548V200H513.156V198.848C512.59 199.755 511.726 200.208 510.564 200.208C509.625 200.208 508.873 199.915 508.308 199.328C507.742 198.731 507.46 197.925 507.46 196.912V192H508.852V196.832C508.852 197.483 509.028 197.989 509.38 198.352C509.732 198.704 510.217 198.88 510.836 198.88C511.529 198.88 512.089 198.667 512.516 198.24C512.942 197.803 513.156 197.136 513.156 196.24V192ZM517.851 194.16C517.851 194.469 518.006 194.72 518.315 194.912C518.625 195.093 518.998 195.243 519.435 195.36C519.873 195.467 520.31 195.595 520.747 195.744C521.185 195.883 521.558 196.128 521.867 196.48C522.177 196.821 522.331 197.264 522.331 197.808C522.331 198.533 522.049 199.115 521.483 199.552C520.929 199.989 520.214 200.208 519.339 200.208C518.561 200.208 517.894 200.037 517.339 199.696C516.785 199.355 516.39 198.901 516.155 198.336L517.355 197.648C517.483 198.032 517.723 198.336 518.075 198.56C518.427 198.784 518.849 198.896 519.339 198.896C519.798 198.896 520.177 198.811 520.475 198.64C520.774 198.459 520.923 198.181 520.923 197.808C520.923 197.499 520.769 197.253 520.459 197.072C520.15 196.88 519.777 196.731 519.339 196.624C518.902 196.507 518.465 196.373 518.027 196.224C517.59 196.075 517.217 195.829 516.907 195.488C516.598 195.147 516.443 194.709 516.443 194.176C516.443 193.483 516.71 192.912 517.243 192.464C517.787 192.016 518.465 191.792 519.275 191.792C519.926 191.792 520.502 191.941 521.003 192.24C521.515 192.528 521.899 192.933 522.155 193.456L520.987 194.112C520.699 193.429 520.129 193.088 519.275 193.088C518.881 193.088 518.545 193.184 518.267 193.376C517.99 193.557 517.851 193.819 517.851 194.16ZM528.019 193.344H525.891V197.68C525.891 198.075 525.966 198.357 526.115 198.528C526.275 198.688 526.515 198.773 526.835 198.784C527.155 198.784 527.55 198.773 528.019 198.752V200C526.803 200.16 525.912 200.064 525.347 199.712C524.782 199.349 524.499 198.672 524.499 197.68V193.344H522.915V192H524.499V190.176L525.891 189.76V192H528.019V193.344ZM537.826 189.936C536.418 189.819 535.714 190.427 535.714 191.76V192H537.826V193.344H535.714V200H534.322V193.344H533.042V192H534.322V191.76C534.322 190.683 534.62 189.867 535.218 189.312C535.826 188.757 536.695 188.517 537.826 188.592V189.936ZM539.424 196.64C539.563 197.355 539.888 197.909 540.4 198.304C540.923 198.699 541.563 198.896 542.32 198.896C543.376 198.896 544.144 198.507 544.624 197.728L545.808 198.4C545.029 199.605 543.856 200.208 542.288 200.208C541.019 200.208 539.984 199.813 539.184 199.024C538.395 198.224 538 197.216 538 196C538 194.795 538.389 193.792 539.168 192.992C539.947 192.192 540.955 191.792 542.192 191.792C543.365 191.792 544.32 192.208 545.056 193.04C545.803 193.861 546.176 194.853 546.176 196.016C546.176 196.219 546.16 196.427 546.128 196.64H539.424ZM542.192 193.104C541.445 193.104 540.827 193.317 540.336 193.744C539.845 194.16 539.541 194.72 539.424 195.424H544.768C544.651 194.667 544.352 194.091 543.872 193.696C543.392 193.301 542.832 193.104 542.192 193.104ZM556.888 192H558.344L555.864 200H554.44L552.568 194.08L550.696 200H549.272L546.792 192H548.248L550.008 198.08L551.896 192H553.24L555.128 198.096L556.888 192ZM567.536 200.208C566.331 200.208 565.328 199.808 564.528 199.008C563.728 198.197 563.328 197.195 563.328 196C563.328 194.805 563.728 193.808 564.528 193.008C565.328 192.197 566.331 191.792 567.536 191.792C568.326 191.792 569.035 191.984 569.664 192.368C570.294 192.741 570.763 193.248 571.072 193.888L569.904 194.56C569.702 194.133 569.387 193.792 568.96 193.536C568.544 193.28 568.07 193.152 567.536 193.152C566.736 193.152 566.064 193.424 565.52 193.968C564.987 194.512 564.72 195.189 564.72 196C564.72 196.8 564.987 197.472 565.52 198.016C566.064 198.56 566.736 198.832 567.536 198.832C568.07 198.832 568.55 198.709 568.976 198.464C569.403 198.208 569.728 197.867 569.952 197.44L571.136 198.128C570.795 198.757 570.304 199.264 569.664 199.648C569.024 200.021 568.315 200.208 567.536 200.208ZM572.511 200V188.32H573.903V200H572.511ZM576.73 190.544C576.464 190.544 576.24 190.453 576.058 190.272C575.877 190.091 575.786 189.872 575.786 189.616C575.786 189.36 575.877 189.141 576.058 188.96C576.24 188.768 576.464 188.672 576.73 188.672C576.986 188.672 577.205 188.768 577.386 188.96C577.568 189.141 577.658 189.36 577.658 189.616C577.658 189.872 577.568 190.091 577.386 190.272C577.205 190.453 576.986 190.544 576.73 190.544ZM576.026 200V192H577.418V200H576.026ZM583.302 200.208C582.097 200.208 581.094 199.808 580.294 199.008C579.494 198.197 579.094 197.195 579.094 196C579.094 194.805 579.494 193.808 580.294 193.008C581.094 192.197 582.097 191.792 583.302 191.792C584.091 191.792 584.801 191.984 585.43 192.368C586.059 192.741 586.529 193.248 586.838 193.888L585.67 194.56C585.467 194.133 585.153 193.792 584.726 193.536C584.31 193.28 583.835 193.152 583.302 193.152C582.502 193.152 581.83 193.424 581.286 193.968C580.753 194.512 580.486 195.189 580.486 196C580.486 196.8 580.753 197.472 581.286 198.016C581.83 198.56 582.502 198.832 583.302 198.832C583.835 198.832 584.315 198.709 584.742 198.464C585.169 198.208 585.494 197.867 585.718 197.44L586.902 198.128C586.561 198.757 586.07 199.264 585.43 199.648C584.79 200.021 584.081 200.208 583.302 200.208ZM595.044 200H593.316L589.668 196.208V200H588.276V188.8H589.668V195.536L593.124 192H594.916L591.092 195.872L595.044 200ZM596.929 194.16C596.929 194.469 597.084 194.72 597.393 194.912C597.703 195.093 598.076 195.243 598.513 195.36C598.951 195.467 599.388 195.595 599.825 195.744C600.263 195.883 600.636 196.128 600.945 196.48C601.255 196.821 601.409 197.264 601.409 197.808C601.409 198.533 601.127 199.115 600.561 199.552C600.007 199.989 599.292 200.208 598.417 200.208C597.639 200.208 596.972 200.037 596.417 199.696C595.863 199.355 595.468 198.901 595.233 198.336L596.433 197.648C596.561 198.032 596.801 198.336 597.153 198.56C597.505 198.784 597.927 198.896 598.417 198.896C598.876 198.896 599.255 198.811 599.553 198.64C599.852 198.459 600.001 198.181 600.001 197.808C600.001 197.499 599.847 197.253 599.537 197.072C599.228 196.88 598.855 196.731 598.417 196.624C597.98 196.507 597.543 196.373 597.105 196.224C596.668 196.075 596.295 195.829 595.985 195.488C595.676 195.147 595.521 194.709 595.521 194.176C595.521 193.483 595.788 192.912 596.321 192.464C596.865 192.016 597.543 191.792 598.353 191.792C599.004 191.792 599.58 191.941 600.081 192.24C600.593 192.528 600.977 192.933 601.233 193.456L600.065 194.112C599.777 193.429 599.207 193.088 598.353 193.088C597.959 193.088 597.623 193.184 597.345 193.376C597.068 193.557 596.929 193.819 596.929 194.16ZM603.766 200.176C603.478 200.176 603.232 200.075 603.03 199.872C602.827 199.669 602.726 199.424 602.726 199.136C602.726 198.848 602.827 198.603 603.03 198.4C603.232 198.197 603.478 198.096 603.766 198.096C604.064 198.096 604.31 198.197 604.502 198.4C604.704 198.603 604.806 198.848 604.806 199.136C604.806 199.424 604.704 199.669 604.502 199.872C604.31 200.075 604.064 200.176 603.766 200.176Z" fill="#141414"/>
<rect x="65.25" y="24.25" width="767.5" height="223.5" rx="23.75" stroke="#005AE2" stroke-width="0.5"/>
</g>
<defs>
<filter id="filter0_b_0_66" x="-147" y="-188" width="1192" height="648" filterUnits="userSpaceOnUse" color-interpolation-filters="sRGB">
<feFlood flood-opacity="0" result="BackgroundImageFix"/>
<feGaussianBlur in="BackgroundImageFix" stdDeviation="106"/>
<feComposite in2="SourceAlpha" operator="in" result="effect1_backgroundBlur_0_66"/>
<feBlend mode="normal" in="SourceGraphic" in2="effect1_backgroundBlur_0_66" result="shape"/>
</filter>
</defs>
</svg>
